<?xml version="1.0" standalone="no"?>
<!DOCTYPE svg PUBLIC "-//W3C//DTD SVG 20010904//EN"
 "http://www.w3.org/TR/2001/REC-SVG-20010904/DTD/svg10.dtd">
<svg version="1.0" xmlns="http://www.w3.org/2000/svg"
 width="700.000000pt" height="700.000000pt" viewBox="0 0 700.000000 700.000000"
 preserveAspectRatio="xMidYMid meet">
<metadata>
Created by potrace 1.11, written by Peter Selinger 2001-2013
</metadata>
<g transform="translate(0.000000,700.000000) scale(0.100000,-0.100000)"
fill="#000000" stroke="none">
<path d="M2573 6927 c-153 -176 -193 -292 -150 -438 10 -32 35 -81 57 -110 38
-51 40 -57 41 -129 1 -88 5 -114 23 -151 13 -26 11 -30 -26 -76 -79 -94 -294
-316 -376 -385 -190 -160 -289 -276 -308 -360 -7 -30 -7 -146 1 -157 11 -18
-63 -80 -114 -95 -75 -22 -154 -67 -256 -146 -49 -38 -124 -90 -165 -116 -218
-137 -282 -179 -360 -236 -246 -183 -270 -203 -304 -258 -37 -58 -55 -124 -52
-192 3 -59 1 -66 -33 -113 -58 -80 -77 -129 -80 -210 -4 -110 44 -205 134
-267 97 -67 211 -76 315 -27 33 16 79 28 107 30 26 1 68 10 94 19 43 16 141
77 185 116 12 11 52 46 90 79 38 33 179 169 313 303 134 133 261 256 282 273
36 28 38 29 44 9 4 -13 -2 -34 -15 -58 -51 -85 -69 -184 -51 -274 l12 -56 -67
-101 c-79 -122 -99 -185 -89 -283 6 -66 6 -67 -17 -63 -86 14 -135 17 -223 17
-139 -2 -207 -10 -303 -38 -135 -39 -170 -55 -542 -252 -78 -41 -166 -100
-201 -134 -12 -12 -109 -90 -144 -116 -138 -103 -273 -230 -348 -328 l-47 -60
0 -949 0 -948 41 -55 c89 -117 227 -258 319 -324 67 -49 302 -171 355 -184 17
-4 50 -16 75 -27 25 -11 47 -19 49 -18 2 2 7 -1 10 -6 23 -32 54 -33 1304 -33
928 0 1246 3 1255 12 8 8 15 8 26 -1 9 -8 54 -11 138 -11 110 2 125 4 146 23
12 11 22 28 22 38 0 10 4 20 9 23 12 8 7 93 -7 128 -6 15 -44 61 -84 102 -88
91 -165 178 -186 208 -9 13 -19 25 -22 28 -3 3 -5 16 -5 30 1 78 -50 187 -114
242 -26 22 -37 39 -34 53 19 97 4 192 -45 278 -16 28 -32 66 -36 84 -4 17 -24
60 -45 95 -31 50 -40 77 -46 133 -3 39 -8 81 -10 95 -2 14 -7 43 -10 65 -3 22
-7 51 -10 65 -6 32 -15 100 -20 165 -2 28 -9 89 -15 136 l-11 86 35 55 c52 83
70 146 63 231 -3 40 -8 79 -11 87 -4 10 25 46 80 104 161 167 203 235 208 336
5 100 -29 184 -103 256 -37 37 -37 71 2 113 14 14 48 59 77 100 29 41 61 84
72 95 22 24 47 55 84 106 l25 35 -4 -38 c-11 -111 29 -217 111 -293 l44 -42
-28 -48 c-159 -282 -245 -590 -209 -755 9 -41 39 -103 71 -146 l24 -31 -29
-65 c-41 -90 -49 -138 -38 -222 6 -40 43 -118 71 -148 18 -20 24 -40 29 -103
6 -86 27 -146 75 -208 l30 -40 -19 -45 c-11 -25 -25 -57 -33 -71 -44 -80 -47
-266 -7 -352 13 -26 35 -59 49 -75 24 -25 27 -36 28 -103 2 -192 15 -309 48
-455 6 -27 19 -64 37 -102 10 -24 19 -46 19 -51 0 -35 128 -116 173 -110 16 2
22 -6 31 -42 l11 -45 342 -3 342 -2 31 45 c44 64 59 113 57 192 -3 91 -37 159
-121 243 -36 36 -66 68 -66 71 0 3 24 42 54 86 114 172 134 316 61 447 l-22
39 38 66 c44 76 69 162 69 236 0 52 -24 150 -42 172 -7 9 10 41 59 110 63 89
101 148 128 195 21 38 328 528 342 547 1 2 9 -2 18 -9 10 -8 12 -17 6 -24 -19
-23 -83 -228 -83 -269 -1 -40 2 -57 17 -122 9 -38 46 -102 77 -136 l25 -27
-18 -72 c-22 -85 -19 -201 6 -273 20 -56 101 -149 146 -167 24 -11 29 -17 24
-34 -71 -230 -73 -322 -10 -446 43 -84 148 -162 238 -175 36 -6 48 -14 80 -57
23 -31 37 -63 38 -82 2 -58 -3 -89 -16 -103 -7 -7 -26 -39 -42 -70 -23 -49
-28 -71 -28 -138 0 -67 4 -89 27 -135 15 -30 39 -67 53 -82 l25 -28 540 0 540
0 -2 497 -3 497 -55 17 c-72 23 -178 16 -267 -15 -41 -14 -41 -14 -53 14 -6
15 -31 50 -55 77 -25 26 -44 57 -45 69 -1 94 -84 219 -185 279 -15 9 -15 14 5
59 79 186 19 403 -139 498 -20 12 -37 22 -39 24 -2 1 21 37 51 81 47 69 99
180 112 239 2 10 9 35 14 54 15 47 14 96 -3 151 -17 54 -53 129 -64 129 -4 0
-15 12 -25 25 -17 24 -17 26 17 93 40 76 86 252 86 324 0 118 -75 246 -179
305 -25 15 -48 28 -50 30 -5 4 -5 5 93 205 42 86 76 163 76 171 0 7 4 17 9 23
5 5 19 41 31 79 57 188 61 315 12 419 -32 67 -51 91 -99 124 -33 23 -33 25
-17 105 3 16 62 140 131 275 146 287 218 449 234 523 23 107 1 211 -65 297
l-25 34 41 66 c79 129 167 316 211 447 26 79 30 105 31 210 1 93 5 128 19 154
9 19 17 40 17 47 0 6 20 51 44 98 25 48 48 108 52 134 9 51 9 50 -1 104 l-6
37 -453 1 -453 0 -34 -42 c-40 -49 -150 -178 -231 -270 -97 -109 -144 -239
-118 -327 11 -38 -49 -181 -117 -281 -58 -85 -113 -185 -113 -206 0 -14 -19
-53 -30 -64 -3 -3 -32 -43 -65 -90 -32 -47 -83 -118 -113 -159 l-54 -73 -20
57 c-10 32 -31 73 -45 91 l-25 34 68 105 c38 58 79 125 91 148 98 186 57 386
-100 500 -18 12 -16 17 24 83 24 38 67 104 97 146 29 43 60 95 69 115 19 46
26 162 11 203 l-10 30 -359 0 -360 0 -118 -102 c-64 -57 -140 -121 -167 -143
-26 -22 -65 -55 -86 -74 -27 -23 -39 -29 -42 -20 -22 70 -44 115 -73 149 -35
41 -125 100 -152 100 -8 0 -51 18 -95 40 -128 63 -243 63 -351 -1 -19 -12 -35
-17 -35 -11 0 5 -11 21 -25 36 l-24 26 -383 -1 -383 0 -62 -72z m1207 -869 c0
-7 -20 -34 -43 -60 -23 -26 -73 -83 -112 -127 -38 -44 -74 -80 -78 -80 -22 -2
48 94 133 181 52 54 96 98 97 98 2 0 3 -6 3 -12z m-2243 -3391 c-29 -56 -32
-71 -32 -152 0 -82 3 -95 33 -154 l33 -63 -55 -97 c-95 -167 -104 -255 -39
-393 l26 -57 -39 -48 c-21 -26 -46 -56 -55 -66 -35 -38 -74 -125 -84 -187 -11
-66 -7 -105 21 -182 7 -20 10 -38 6 -40 -9 -4 -56 -65 -106 -136 -70 -100 -81
-223 -30 -330 15 -31 28 -61 28 -66 2 -20 -50 -75 -71 -76 -30 0 -159 47 -213
78 -73 43 -217 179 -289 274 -38 51 -87 146 -96 185 -2 10 -15 56 -30 103 -14
47 -32 112 -40 144 l-14 59 50 91 c92 165 102 196 107 332 2 77 0 129 -7 142
-9 17 3 38 91 153 116 153 108 145 236 252 127 104 158 123 277 170 55 21 138
58 185 81 47 23 97 43 112 44 l26 2 -31 -63z"/>
</g>
</svg>
